<svg width="30" height="30" viewBox="0 0 30 30" xmlns="http://www.w3.org/2000/svg">
<path fill-rule="evenodd" clip-rule="evenodd" d="M20.9571 4.04291L16.9571 0.0429077L15.5429 1.45712L17.8358 3.75001H15.25C8.48451 3.75001 3 9.23453 3 16C3 22.7655 8.48451 28.25 15.25 28.25C20.0613 28.25 24.2228 25.4762 26.2261 21.445L24.4351 20.555C22.7566 23.9324 19.2731 26.25 15.25 26.25C9.58908 26.25 5 21.6609 5 16C5 10.3391 9.58908 5.75001 15.25 5.75001H17.8358L15.5429 8.04291L16.9571 9.45712L20.9571 5.45712L21.6642 4.75001L20.9571 4.04291ZM12.1873 15.4661C12.0435 15.5226 11.8758 15.5509 11.6841 15.5509H10.9891V16.9446H11.6481C12.0555 16.9446 12.371 17.0375 12.5947 17.2234C12.8184 17.4092 12.9302 17.6435 12.9302 17.9263V18.3141C12.9302 18.6211 12.8304 18.8716 12.6307 19.0655C12.4389 19.2594 12.1633 19.3563 11.8039 19.3563C11.4124 19.3563 11.0929 19.2472 10.8453 19.0291C10.6056 18.8029 10.4059 18.512 10.2462 18.1565L9 19.1261C9.11982 19.3442 9.25962 19.5502 9.41938 19.7441C9.58714 19.938 9.78285 20.1117 10.0065 20.2652C10.2382 20.4107 10.5018 20.5278 10.7974 20.6167C11.1009 20.7056 11.4404 20.75 11.8159 20.75C12.2632 20.75 12.6626 20.6894 13.0141 20.5682C13.3736 20.447 13.6771 20.2733 13.9248 20.0471C14.1804 19.8209 14.3721 19.5462 14.4999 19.223C14.6357 18.8998 14.7036 18.5322 14.7036 18.1202C14.7036 17.8293 14.6637 17.5788 14.5838 17.3688C14.5119 17.1506 14.404 16.9729 14.2603 16.8355C14.1245 16.6901 13.9607 16.577 13.769 16.4962C13.5773 16.4073 13.3696 16.3427 13.1459 16.3023V16.1084C13.3376 16.0761 13.5174 16.0114 13.6851 15.9145C13.8608 15.8175 14.0086 15.6923 14.1285 15.5388C14.2563 15.3772 14.3561 15.1873 14.428 14.9692C14.5079 14.7511 14.5478 14.5006 14.5478 14.2178C14.5478 13.4664 14.3122 12.9089 13.8409 12.5454C13.3776 12.1818 12.7385 12 11.9237 12C11.3485 12 10.8333 12.1212 10.378 12.3636C9.92264 12.5979 9.5432 12.9493 9.23965 13.418L10.2941 14.3996C10.5018 14.0683 10.7295 13.8179 10.9771 13.6482C11.2247 13.4785 11.5083 13.3937 11.8278 13.3937C12.1394 13.3937 12.379 13.4785 12.5468 13.6482C12.7145 13.8098 12.7984 14.0077 12.7984 14.2421V14.6299C12.7984 14.7349 12.7744 14.844 12.7265 14.9571C12.6866 15.0621 12.6227 15.1591 12.5348 15.2479C12.4469 15.3368 12.3311 15.4095 12.1873 15.4661ZM17.2683 20.5076C17.6278 20.6692 18.0591 20.75 18.5624 20.75C19.0657 20.75 19.497 20.6692 19.8565 20.5076C20.216 20.338 20.5115 20.0794 20.7432 19.732C20.9828 19.3765 21.1586 18.9241 21.2704 18.3747C21.3822 17.8172 21.4382 17.1506 21.4382 16.375C21.4382 15.5994 21.3822 14.9369 21.2704 14.3875C21.1586 13.83 20.9828 13.3776 20.7432 13.0301C20.5115 12.6746 20.216 12.4161 19.8565 12.2545C19.497 12.0848 19.0657 12 18.5624 12C18.0591 12 17.6278 12.0848 17.2683 12.2545C16.9088 12.4161 16.6093 12.6746 16.3696 13.0301C16.138 13.3776 15.9662 13.83 15.8544 14.3875C15.7425 14.9369 15.6866 15.5994 15.6866 16.375C15.6866 17.1506 15.7425 17.8172 15.8544 18.3747C15.9662 18.9241 16.138 19.3765 16.3696 19.732C16.6093 20.0794 16.9088 20.338 17.2683 20.5076ZM19.0657 19.2109C18.9299 19.2674 18.7621 19.2957 18.5624 19.2957C18.3627 19.2957 18.1949 19.2674 18.0591 19.2109C17.9233 19.1463 17.8155 19.0493 17.7356 18.92C17.6557 18.7827 17.5958 18.6049 17.5559 18.3868C17.5239 18.1686 17.5079 17.898 17.5079 17.5748V15.1752C17.5079 14.5369 17.5838 14.0926 17.7356 13.8421C17.8874 13.5836 18.163 13.4543 18.5624 13.4543C18.9618 13.4543 19.2374 13.5836 19.3892 13.8421C19.541 14.0926 19.6168 14.5369 19.6168 15.1752V17.5748C19.6168 17.898 19.5969 18.1686 19.5569 18.3868C19.525 18.6049 19.4691 18.7827 19.3892 18.92C19.3093 19.0493 19.2015 19.1463 19.0657 19.2109Z"/>
</svg>
