<svg width="30" height="30" viewBox="0 0 30 30" xmlns="http://www.w3.org/2000/svg">
<path fill-rule="evenodd" clip-rule="evenodd" d="M18.8839 2.36386L16.75 0.22998V3.24775V4.24775H15.25C8.34644 4.24775 2.75 9.84419 2.75 16.7477C2.75 23.6513 8.34644 29.2477 15.25 29.2477C20.1598 29.2477 24.4061 26.4169 26.45 22.304L24.2112 21.1915C22.5734 24.4872 19.1745 26.7477 15.25 26.7477C9.72715 26.7477 5.25 22.2706 5.25 16.7477C5.25 11.2249 9.72715 6.74775 15.25 6.74775H16.75V7.74775V10.7655L18.8839 8.63163L21.1339 6.38163L22.0178 5.49775L21.1339 4.61386L18.8839 2.36386ZM12.1873 16.2161C12.0435 16.2726 11.8758 16.3009 11.6841 16.3009H10.9891V17.6946H11.6481C12.0555 17.6946 12.371 17.7875 12.5947 17.9733C12.8184 18.1592 12.9302 18.3935 12.9302 18.6762V19.0641C12.9302 19.3711 12.8304 19.6215 12.6307 19.8154C12.4389 20.0093 12.1633 20.1063 11.8039 20.1063C11.4124 20.1063 11.0929 19.9972 10.8453 19.7791C10.6056 19.5529 10.4059 19.262 10.2462 18.9065L9 19.876C9.11982 20.0942 9.25962 20.3002 9.41938 20.4941C9.58714 20.688 9.78285 20.8617 10.0065 21.0152C10.2382 21.1607 10.5018 21.2778 10.7974 21.3667C11.1009 21.4556 11.4404 21.5 11.8159 21.5C12.2632 21.5 12.6626 21.4394 13.0141 21.3182C13.3736 21.197 13.6771 21.0233 13.9248 20.7971C14.1804 20.5709 14.3721 20.2962 14.4999 19.973C14.6357 19.6498 14.7036 19.2822 14.7036 18.8702C14.7036 18.5793 14.6637 18.3288 14.5838 18.1188C14.5119 17.9006 14.404 17.7229 14.2603 17.5855C14.1245 17.4401 13.9607 17.327 13.769 17.2462C13.5773 17.1573 13.3696 17.0927 13.1459 17.0523V16.8584C13.3376 16.8261 13.5174 16.7614 13.6851 16.6645C13.8608 16.5675 14.0086 16.4423 14.1285 16.2888C14.2563 16.1272 14.3561 15.9373 14.428 15.7192C14.5079 15.501 14.5478 15.2506 14.5478 14.9678C14.5478 14.2164 14.3122 13.6589 13.8409 13.2954C13.3776 12.9318 12.7385 12.75 11.9237 12.75C11.3485 12.75 10.8333 12.8712 10.378 13.1136C9.92264 13.3479 9.5432 13.6993 9.23965 14.1679L10.2941 15.1496C10.5018 14.8183 10.7295 14.5679 10.9771 14.3982C11.2247 14.2285 11.5083 14.1437 11.8278 14.1437C12.1394 14.1437 12.379 14.2285 12.5468 14.3982C12.7145 14.5598 12.7984 14.7577 12.7984 14.992V15.3798C12.7984 15.4849 12.7744 15.594 12.7265 15.7071C12.6866 15.8121 12.6227 15.909 12.5348 15.9979C12.4469 16.0868 12.3311 16.1595 12.1873 16.2161ZM17.2683 21.2576C17.6278 21.4192 18.0591 21.5 18.5624 21.5C19.0657 21.5 19.497 21.4192 19.8565 21.2576C20.216 21.0879 20.5115 20.8294 20.7432 20.482C20.9828 20.1265 21.1586 19.6741 21.2704 19.1247C21.3822 18.5672 21.4382 17.9006 21.4382 17.125C21.4382 16.3494 21.3822 15.6869 21.2704 15.1375C21.1586 14.58 20.9828 14.1275 20.7432 13.7801C20.5115 13.4246 20.216 13.1661 19.8565 13.0045C19.497 12.8348 19.0657 12.75 18.5624 12.75C18.0591 12.75 17.6278 12.8348 17.2683 13.0045C16.9088 13.1661 16.6093 13.4246 16.3696 13.7801C16.138 14.1275 15.9662 14.58 15.8544 15.1375C15.7425 15.6869 15.6866 16.3494 15.6866 17.125C15.6866 17.9006 15.7425 18.5672 15.8544 19.1247C15.9662 19.6741 16.138 20.1265 16.3696 20.482C16.6093 20.8294 16.9088 21.0879 17.2683 21.2576ZM19.0657 19.9609C18.9299 20.0174 18.7621 20.0457 18.5624 20.0457C18.3627 20.0457 18.1949 20.0174 18.0591 19.9609C17.9233 19.8962 17.8155 19.7993 17.7356 19.67C17.6557 19.5327 17.5958 19.3549 17.5559 19.1368C17.5239 18.9186 17.5079 18.648 17.5079 18.3248V15.9252C17.5079 15.2869 17.5838 14.8426 17.7356 14.5921C17.8874 14.3336 18.163 14.2043 18.5624 14.2043C18.9618 14.2043 19.2374 14.3336 19.3892 14.5921C19.541 14.8426 19.6168 15.2869 19.6168 15.9252V18.3248C19.6168 18.648 19.5969 18.9186 19.5569 19.1368C19.525 19.3549 19.4691 19.5327 19.3892 19.67C19.3093 19.7993 19.2015 19.8962 19.0657 19.9609Z"/>
</svg>
