<svg width="30" height="30" viewBox="0 0 30 30" xmlns="http://www.w3.org/2000/svg">
<path fill-rule="evenodd" clip-rule="evenodd" d="M9.04289 4.04291L13.0429 0.0429077L14.4571 1.45712L12.1642 3.75001H14.75C21.5155 3.75001 27 9.23453 27 16C27 22.7655 21.5155 28.25 14.75 28.25C9.93875 28.25 5.77719 25.4762 3.77389 21.445L5.56491 20.555C7.24336 23.9324 10.7269 26.25 14.75 26.25C20.4109 26.25 25 21.6609 25 16C25 10.3391 20.4109 5.75001 14.75 5.75001H12.1642L14.4571 8.04291L13.0429 9.45712L9.04289 5.45712L8.33579 4.75001L9.04289 4.04291ZM17.031 13.5405H20.5063V12H15.6753L15.3796 16.8556L16.8708 17.0528C16.9611 16.9132 17.1008 16.7735 17.2898 16.6338C17.4787 16.4941 17.7211 16.4243 18.0169 16.4243C18.3619 16.4243 18.6372 16.5229 18.8426 16.7201C19.048 16.9091 19.1507 17.213 19.1507 17.6321V18.0264C19.1507 18.8973 18.7604 19.3328 17.9799 19.3328C17.6184 19.3328 17.3103 19.226 17.0556 19.0123C16.8009 18.7905 16.5914 18.4988 16.4271 18.1373L15.1577 19.1233C15.2727 19.3451 15.4124 19.5546 15.5767 19.7518C15.7411 19.949 15.9382 20.1215 16.1683 20.2694C16.3983 20.4173 16.6612 20.5323 16.957 20.6145C17.2528 20.7048 17.5938 20.75 17.9799 20.75C18.9905 20.75 19.7463 20.4871 20.2475 19.9613C20.7487 19.4355 20.9993 18.6878 20.9993 17.7183C20.9993 16.7817 20.7898 16.0957 20.3708 15.6602C19.9517 15.2248 19.3848 15.0071 18.67 15.0071C18.2264 15.0071 17.8649 15.1262 17.5855 15.3645C17.3144 15.6027 17.1337 15.9231 17.0433 16.3257H16.8461L17.031 13.5405ZM8.93365 19.1233V20.6021H14.2329V19.1233H12.5692V12H10.7453L8.48999 13.4419L9.20478 14.6497L10.8439 13.6021V19.1233H8.93365Z"/>
</svg>
