<svg width="30" height="30" viewBox="0 0 30 30" xmlns="http://www.w3.org/2000/svg">
<path fill-rule="evenodd" clip-rule="evenodd" d="M11.1161 2.36386L13.25 0.22998V3.24775V4.24775H14.75C21.6536 4.24775 27.25 9.84419 27.25 16.7477C27.25 23.6513 21.6536 29.2477 14.75 29.2477C9.84022 29.2477 5.59392 26.4169 3.55001 22.304L5.78879 21.1915C7.42663 24.4872 10.8255 26.7477 14.75 26.7477C20.2728 26.7477 24.75 22.2706 24.75 16.7477C24.75 11.2249 20.2728 6.74775 14.75 6.74775H13.25V7.74775V10.7655L11.1161 8.63163L8.86612 6.38163L7.98223 5.49775L8.86612 4.61386L11.1161 2.36386ZM17.031 14.2882H20.5063V12.7477H15.6753L15.3795 17.6034L16.8707 17.8006C16.9611 17.6609 17.1008 17.5212 17.2898 17.3816C17.4787 17.2419 17.7211 17.172 18.0169 17.172C18.3619 17.172 18.6372 17.2706 18.8426 17.4678C19.048 17.6568 19.1507 17.9608 19.1507 18.3798V18.7742C19.1507 19.645 18.7604 20.0805 17.9799 20.0805C17.6184 20.0805 17.3103 19.9737 17.0556 19.7601C16.8009 19.5382 16.5914 19.2466 16.4271 18.8851L15.1577 19.871C15.2727 20.0928 15.4124 20.3023 15.5767 20.4995C15.7411 20.6967 15.9382 20.8692 16.1683 21.0171C16.3983 21.165 16.6612 21.28 16.957 21.3622C17.2528 21.4526 17.5938 21.4977 17.9799 21.4977C18.9905 21.4977 19.7463 21.2348 20.2475 20.709C20.7487 20.1832 20.9993 19.4355 20.9993 18.4661C20.9993 17.5294 20.7898 16.8434 20.3707 16.408C19.9517 15.9725 19.3848 15.7548 18.67 15.7548C18.2264 15.7548 17.8649 15.8739 17.5855 16.1122C17.3144 16.3504 17.1337 16.6709 17.0433 17.0735H16.8461L17.031 14.2882ZM8.93365 19.871V21.3499H14.2329V19.871H12.5692V12.7477H10.7453L8.48998 14.1896L9.20477 15.3974L10.8439 14.3499V19.871H8.93365Z"/>
</svg>
