<svg width="480" height="480" viewBox="0 0 480 480" fill="none" xmlns="http://www.w3.org/2000/svg">
<path fill-rule="evenodd" clip-rule="evenodd" d="M240 368C310.692 368 368 310.692 368 240C368 169.308 310.692 112 240 112C169.308 112 112 169.308 112 240C112 310.692 169.308 368 240 368ZM267.62 180.22L267.601 180.251L222.401 252.587C217.592 260.282 211.247 265.183 203.365 267.289C195.395 269.035 184.861 265.713 174.742 259.391C165.758 250.584 164.249 246.174 162.542 238.04C160.653 229.034 162.028 218.397 167.159 208.897C171.967 201.201 178.356 196.481 186.326 194.735C194.208 192.629 203.208 194.737 213.327 201.06C215.406 202.359 217.309 203.697 219.036 205.072C219.444 205.503 219.841 205.919 220.227 206.323C224.612 210.912 227.57 214.007 228.555 219.949C229.849 218.01 230.031 213.501 229.96 211.489C228.519 206.613 226.54 203.869 224.023 201.06C223.596 200.465 223.23 198.548 224.311 196.692L245.524 162.744C247.447 159.666 250.003 157.778 253.191 157.079C256.343 156.237 259.943 157.08 263.991 159.609C268.038 162.139 270.42 165.033 271.134 168.292C271.814 171.407 271.193 174.504 269.269 177.582L267.62 180.22ZM277.144 210.934C285.114 209.188 294.158 211.477 304.277 217.8C314.395 224.123 320.304 231.178 322.004 238.966C323.791 247.114 322.28 255.036 317.472 262.731L313.35 269.327C308.542 277.022 302.153 281.743 294.183 283.488C286.301 285.595 277.301 283.486 267.182 277.163C265.093 275.858 263.182 274.514 261.448 273.13L234.985 315.479C233.062 318.557 230.506 320.445 227.319 321.144C224.166 321.986 220.566 321.143 216.518 318.614C212.471 316.084 210.09 313.19 209.375 309.931C208.695 306.816 209.317 303.719 211.24 300.641L258.108 225.636C262.917 217.941 269.262 213.04 277.144 210.934Z" fill="#192124" fill-opacity="0.1"/>
</svg>
