<svg width="480" height="480" viewBox="0 0 480 480" fill="none" xmlns="http://www.w3.org/2000/svg">
<path fill-rule="evenodd" clip-rule="evenodd" d="M240 368C310.692 368 368 310.692 368 240C368 169.308 310.692 112 240 112C169.308 112 112 169.308 112 240C112 310.692 169.308 368 240 368ZM220 160C220 155.582 223.582 152 228 152C232.418 152 236 155.582 236 160V288C236 292.418 232.418 296 228 296C223.582 296 220 292.418 220 288V160ZM244 192C244 187.582 247.582 184 252 184C256.418 184 260 187.582 260 192V320C260 324.418 256.418 328 252 328C247.582 328 244 324.418 244 320V192ZM204 184C199.582 184 196 187.582 196 192V268C196 272.418 199.582 276 204 276C208.418 276 212 272.418 212 268V192C212 187.582 208.418 184 204 184ZM268 212C268 207.582 271.582 204 276 204C280.418 204 284 207.582 284 212V288C284 292.418 280.418 296 276 296C271.582 296 268 292.418 268 288V212ZM180 224C175.582 224 172 227.582 172 232V248C172 252.418 175.582 256 180 256C184.418 256 188 252.418 188 248V232C188 227.582 184.418 224 180 224ZM148 240C148 235.582 151.582 232 156 232C160.418 232 164 235.582 164 240C164 244.418 160.418 248 156 248C151.582 248 148 244.418 148 240ZM300 224C295.582 224 292 227.582 292 232V248C292 252.418 295.582 256 300 256C304.418 256 308 252.418 308 248V232C308 227.582 304.418 224 300 224ZM316 240C316 235.582 319.582 232 324 232C328.418 232 332 235.582 332 240C332 244.418 328.418 248 324 248C319.582 248 316 244.418 316 240Z" fill="#90A4AE" fill-opacity="0.3"/>
</svg>
