<svg width="138" height="138" viewBox="0 0 138 138" fill="none" xmlns="http://www.w3.org/2000/svg">
<circle cx="69" cy="69" r="64" fill="#26C6DA"/>
<path d="M87.5722 54.4671C91.5569 53.5942 96.079 54.7385 101.138 57.9C106.198 61.0614 109.152 64.5891 110.002 68.4829C110.896 72.5569 110.14 76.5178 107.736 80.3654L105.675 83.6634C103.271 87.511 100.076 89.8713 96.0917 90.7442C92.1507 91.7973 87.6505 90.7431 82.5912 87.5816C81.5466 86.9289 80.5909 86.2568 79.7239 85.5652L66.4928 106.739C65.5311 108.279 64.2533 109.223 62.6594 109.572C61.083 109.993 59.2829 109.571 57.2592 108.307C55.2354 107.042 54.0448 105.595 53.6874 103.965C53.3475 102.408 53.6584 100.86 54.6201 99.3206L78.0543 61.8182C80.4586 57.9706 83.6312 55.5202 87.5722 54.4671Z" fill="#192124"/>
<path d="M82.8103 39.1101L82.8006 39.1257L60.2004 75.2935C57.7962 79.1411 54.6236 81.5915 50.6826 82.6446C46.6978 83.5175 41.4307 81.8567 36.3713 78.6953C31.8792 74.2918 31.1244 72.0872 30.271 68.0198C29.3264 63.5172 30.0143 58.1984 32.5796 53.4484C34.9838 49.6007 38.1783 47.2405 42.163 46.3675C46.104 45.3145 50.6042 46.3686 55.6636 49.5301C56.7029 50.1795 57.6544 50.8483 58.518 51.5362C58.7219 51.7514 58.9206 51.9593 59.1137 52.1614C61.3061 54.4558 62.7849 56.0034 63.2777 58.9746C63.9244 58.0048 64.0154 55.7505 63.9801 54.7445C63.2595 52.3064 62.2701 50.9347 61.0118 49.53C60.7982 49.2327 60.6151 48.2739 61.1554 47.3461L71.762 30.372C72.7237 28.833 74.0015 27.8889 75.5954 27.5397C77.1718 27.1185 78.9719 27.5402 80.9956 28.8047C83.0194 30.0693 84.2099 31.5164 84.5673 33.146C84.9073 34.7036 84.5964 36.2519 83.6347 37.7909L82.8103 39.1101Z" fill="#192124"/>
</svg>
